<?xml version="1.0" encoding="UTF-8"?>
<svg width="220px" height="307px" viewBox="0 0 220 307" version="1.1" xmlns="http://www.w3.org/2000/svg" xmlns:xlink="http://www.w3.org/1999/xlink">
    <title>Group 3</title>
    <defs>
        <polygon id="path-1" points="0.0002 0 219.5072 0 219.5072 306.9078 0.0002 306.9078"></polygon>
    </defs>
    <g id="-" stroke="none" stroke-width="1" fill="none" fill-rule="evenodd">
        <g id="Login" transform="translate(-317.000000, -359.000000)">
            <g id="Group-3" transform="translate(317.000000, 359.000000)">
                <mask id="mask-2" fill="white">
                    <use xlink:href="#path-1"></use>
                </mask>
                <g id="Clip-2"></g>
                <path d="M212.6502,122.6658 L184.7852,122.6658 L184.7852,304.8278 L142.3632,304.8278 L142.3632,122.6658 L114.4982,122.6658 L114.4982,87.1758 L212.6502,87.1758 L212.6502,122.6658 Z M16.3332,95.7708 C25.2062,88.7008 37.8212,85.0958 54.3192,85.0958 C70.6762,85.0958 83.2932,88.7008 92.3032,95.7708 C101.1752,102.9798 105.6132,114.9018 105.6132,131.6768 L105.6132,162.4528 L63.4672,162.4528 L63.4672,131.8148 C63.4672,124.1908 60.4182,120.4468 54.3192,120.4468 C48.0802,120.5858 45.0302,124.3288 45.0302,131.8148 L45.0302,260.0498 C45.0302,268.5068 48.3572,271.4178 55.1502,271.4178 C62.0822,271.4178 65.5472,267.6748 65.5472,260.0498 L65.5472,213.7468 L54.3192,213.7468 L54.3192,179.6428 L105.6132,179.6428 L105.6132,260.3268 C105.6132,277.1018 101.1752,289.0238 92.3032,296.0948 C83.2932,303.3028 70.6762,306.9078 54.3192,306.9078 C37.8212,306.9078 25.2062,303.3028 16.3332,296.0948 C7.3222,289.0238 2.8852,277.1018 2.8852,260.3268 L2.8852,131.6768 C2.8852,114.9018 7.3222,102.9798 16.3332,95.7708 L16.3332,95.7708 Z M20.5682,59.6298 C18.4952,61.2878 15.5922,62.1168 11.8302,62.1168 C8.0362,62.1168 5.1332,61.2878 3.0922,59.6298 C1.0202,57.9718 0.0002,55.2298 0.0002,51.4028 L0.0002,21.6838 C0.0002,17.8248 1.0202,15.0828 3.0922,13.4248 C5.1332,11.7978 8.0362,10.9688 11.8302,10.9688 C15.5922,10.9688 18.4952,11.7978 20.5682,13.4248 C22.6082,15.0828 23.6292,17.8248 23.6292,21.6838 L23.6292,29.4958 L13.8712,29.4958 L13.8712,21.7148 C13.8712,19.9618 13.2022,19.1008 11.8302,19.1008 C10.4592,19.1328 9.7572,19.9928 9.7572,21.7148 L9.7572,51.3388 C9.7572,53.0928 10.4592,53.9538 11.8302,53.9538 C13.2022,53.9538 13.8712,53.0928 13.8712,51.3388 L13.8712,43.4308 L23.6292,43.4308 L23.6292,51.4028 C23.6292,55.2608 22.6082,58.0038 20.5682,59.6298 L20.5682,59.6298 Z M40.8822,21.7148 C40.8822,19.9618 40.2132,19.1008 38.8412,19.1008 C37.4702,19.1328 36.7702,19.9928 36.7702,21.7148 L36.7702,51.2118 C36.7702,52.9648 37.4702,53.8258 38.8412,53.8258 C40.2132,53.8258 40.8822,52.9648 40.8822,51.2118 L40.8822,21.7148 Z M47.5802,59.5018 C45.5062,61.1608 42.6052,61.9898 38.8412,61.9898 C35.0472,61.9898 32.1462,61.1608 30.1052,59.5018 C28.0322,57.8758 27.0112,55.1338 27.0112,51.2748 L27.0112,21.6838 C27.0112,17.8248 28.0322,15.0828 30.1052,13.4248 C32.1462,11.7978 35.0472,10.9688 38.8412,10.9688 C42.6052,10.9688 45.5062,11.7978 47.5802,13.4248 C49.6202,15.0828 50.6412,17.8248 50.6412,21.6838 L50.6412,51.2748 C50.6412,55.1338 49.6202,57.8758 47.5802,59.5018 L47.5802,59.5018 Z M63.3352,27.4868 L62.7292,27.4868 L63.0162,34.1518 L63.0162,61.5108 L54.0242,61.5108 L54.0242,11.4478 L66.3972,11.4478 L72.1682,45.4718 L72.7422,45.4718 L72.4872,38.8068 L72.4872,11.4478 L81.4482,11.4478 L81.4482,61.5108 L69.1072,61.5108 L63.3352,27.4868 Z M98.7022,22.2578 C98.7022,20.2168 98.1282,19.6108 96.3102,19.6108 L94.5872,19.6108 L94.5872,53.3478 L96.3102,53.3478 C98.1282,53.3478 98.7022,52.7098 98.7022,50.6698 L98.7022,22.2578 Z M98.6062,61.5108 L84.8312,61.5108 L84.8312,11.4478 L98.6062,11.4478 C102.5602,11.4478 105.2072,12.2128 106.5142,13.7748 C107.8222,15.3378 108.4602,18.1438 108.4602,22.1618 L108.4602,50.7968 C108.4602,54.8148 107.8222,57.5888 106.5142,59.1518 C105.2072,60.7138 102.5602,61.5108 98.6062,61.5108 L98.6062,61.5108 Z M111.8422,61.5108 L121.6002,61.5108 L121.6002,11.4478 L111.8422,11.4478 L111.8422,61.5108 Z M145.5192,59.6298 C143.4472,61.2878 140.5452,62.1168 136.7822,62.1168 C132.9872,62.1168 130.0862,61.2878 128.0452,59.6298 C125.9712,57.9718 124.9522,55.2298 124.9522,51.4028 L124.9522,21.6838 C124.9522,17.8248 125.9712,15.0828 128.0452,13.4248 C130.0862,11.7978 132.9872,10.9688 136.7822,10.9688 C140.5452,10.9688 143.4472,11.7978 145.5192,13.4248 C147.5602,15.0828 148.5812,17.8248 148.5812,21.6838 L148.5812,29.4958 L138.8232,29.4958 L138.8232,21.7148 C138.8232,19.9618 138.1532,19.1008 136.7822,19.1008 C135.4112,19.1328 134.7092,19.9928 134.7092,21.7148 L134.7092,51.3388 C134.7092,53.0928 135.4112,53.9538 136.7822,53.9538 C138.1532,53.9538 138.8232,53.0928 138.8232,51.3388 L138.8232,43.4308 L148.5812,43.4308 L148.5812,51.4028 C148.5812,55.2608 147.5602,58.0038 145.5192,59.6298 L145.5192,59.6298 Z M151.9632,61.5108 L161.7202,61.5108 L161.7202,11.4478 L151.9632,11.4478 L151.9632,61.5108 Z M172.6292,8.7368 L175.5322,-0.0002 L184.0782,-0.0002 L181.1752,8.7368 L172.6292,8.7368 Z M178.9442,21.7148 C178.9442,19.9618 178.2742,19.1008 176.9032,19.1008 C175.5322,19.1328 174.8302,19.9928 174.8302,21.7148 L174.8302,51.2118 C174.8302,52.9648 175.5322,53.8258 176.9032,53.8258 C178.2742,53.8258 178.9442,52.9648 178.9442,51.2118 L178.9442,21.7148 Z M185.6402,59.5018 C183.5682,61.1608 180.6662,61.9898 176.9032,61.9898 C173.1082,61.9898 170.2072,61.1608 168.1662,59.5018 C166.0922,57.8758 165.0732,55.1338 165.0732,51.2748 L165.0732,21.6838 C165.0732,17.8248 166.0922,15.0828 168.1662,13.4248 C170.2072,11.7978 173.1082,10.9688 176.9032,10.9688 C180.6662,10.9688 183.5682,11.7978 185.6402,13.4248 C187.6812,15.0828 188.7022,17.8248 188.7022,21.6838 L188.7022,51.2748 C188.7022,55.1338 187.6812,57.8758 185.6402,59.5018 L185.6402,59.5018 Z M207.1682,61.5108 L201.3962,27.4868 L200.7902,27.4868 L201.0772,34.1518 L201.0772,61.5108 L192.0852,61.5108 L192.0852,11.4478 L204.4572,11.4478 L210.2292,45.4718 L210.8022,45.4718 L210.5472,38.8068 L210.5472,11.4478 L219.5072,11.4478 L219.5072,61.5108 L207.1682,61.5108 Z" id="Fill-1" fill="#FFFFFF" mask="url(#mask-2)"></path>
            </g>
        </g>
    </g>
</svg>