<?xml version="1.0" encoding="UTF-8"?>
<svg width="186px" height="128px" viewBox="0 0 186 128" version="1.1" xmlns="http://www.w3.org/2000/svg" xmlns:xlink="http://www.w3.org/1999/xlink">
    <title>Asset 9</title>
    <defs>
        <linearGradient x1="-70.34959%" y1="-8.85782348%" x2="150.57186%" y2="80.6053344%" id="linearGradient-1">
            <stop stop-color="#FD2E02" offset="0%"></stop>
            <stop stop-color="#000000" offset="20%"></stop>
            <stop stop-color="#FD2E02" offset="66%"></stop>
            <stop stop-color="#FF7400" offset="100%"></stop>
        </linearGradient>
        <linearGradient x1="-9.15986305%" y1="16.3181791%" x2="98.6831709%" y2="59.4779901%" id="linearGradient-2">
            <stop stop-color="#FD2E02" offset="0%"></stop>
            <stop stop-color="#000000" offset="20%"></stop>
            <stop stop-color="#FD2E02" offset="66%"></stop>
            <stop stop-color="#FF7400" offset="100%"></stop>
        </linearGradient>
    </defs>
    <g id="-" stroke="none" stroke-width="1" fill="none" fill-rule="evenodd">
        <g id="Login--&gt;-MOVIL" transform="translate(-147.000000, -222.000000)" fill-rule="nonzero">
            <g id="Asset-9" transform="translate(147.000000, 222.000000)">
                <polygon id="Path" fill="url(#linearGradient-1)" points="71.8215365 25.8886627 87.5648468 25.8886627 87.5648468 52.62298 92.5 61 97.4351532 52.62298 97.4351532 25.8886627 113.184182 25.8886627 119 16 66 16"></polygon>
                <polygon id="Path" fill="url(#linearGradient-2)" points="38 0 43.8447195 9.86285714 43.8447195 9.86285714 69.1584409 52.5885714 83.2305504 76.3485714 86.7500132 82.2914286 86.7557545 82.2914286 86.7557545 82.2971429 92.5028707 92 98.2557282 82.2857143 101.775191 76.3428571 120.457624 44.8057143 126.302344 34.9428571 126.308085 34.9371429 114.808112 34.9371429 114.808112 34.9428571 102.911983 34.9428571 102.911983 44.8057143 108.963392 44.8057143 96.0280748 66.6342857 92.5028707 72.5885714 92.5028707 72.5828571 88.983408 66.6342857 55.3446932 9.86285714 129.661048 9.86285714 120.308349 25.6514286 131.808322 25.6514286 141.161022 9.86285714 141.161022 9.86285714 147 0"></polygon>
                <path d="M5.13038549,123.892537 L5.13038549,121.435934 L9.92063492,121.435934 L9.92063492,126.192335 C8.81442737,127.380174 7.27104866,128.035813 5.66893424,127.998489 C1.33786848,127.998489 0,124.513947 0,121.987653 C0,119.46136 1.33786848,116 5.66893424,116 C7.33394815,115.993125 8.91774576,116.73643 10,118.032698 L8.39002268,119.838852 C7.66569355,119.079825 6.70086908,118.610325 5.66893424,118.514726 C3.02721088,118.514726 2.65306122,121.08748 2.65306122,121.952808 C2.65306122,122.818136 3.02721088,125.524464 5.66893424,125.524464 C6.24467652,125.523423 6.80850637,125.356377 7.29591837,125.042436 L7.29591837,123.880921 L5.13038549,123.892537 Z" id="Path" fill="#000000"></path>
                <path d="M25,128 L22.1016949,128 L21.1129944,125.516018 L17.8983051,125.516018 L16.9039548,128 L14,128 L19.3898305,116 L19.6158192,116 L25,128 Z M18.7344633,123.375062 L20.2429379,123.375062 L19.4971751,121.470675 L18.7344633,123.375062 Z" id="Shape" fill="#000000"></path>
                <path d="M35.40125,123.216535 L35.40125,116 L38,116 L38,123.216535 C38,125.230315 36.84125,128 33.5,128 C30.15875,128 29,125.230315 29,123.216535 L29,116 L31.5875,116 L31.5875,123.216535 C31.5875,123.84252 31.9925,125.490157 33.528125,125.490157 C35.06375,125.490157 35.40125,123.84252 35.40125,123.216535 Z" id="Path" fill="#000000"></path>
                <polygon id="Path" fill="#000000" points="46.1105991 118.558648 43 118.558648 43 116 52 116 52 118.558648 48.8538512 118.558648 48.8538512 128 46.1105991 128"></polygon>
                <polygon id="Path" fill="#000000" points="59 128 56 128 56 116 59 116"></polygon>
                <polygon id="Path" fill="#000000" points="67.6417266 123.353877 67.6417266 125.447316 73 125.447316 73 128 65 128 65 116 73 116 73 118.558648 67.6417266 118.558648 67.6417266 120.801193 71.8258993 120.801193 71.8258993 123.353877"></polygon>
                <path d="M80.7530221,127.970253 L78,127.970253 L78,116 L82.6284432,116 C85.9825618,116 86.9984149,118.326227 86.9984149,119.950421 C87.0423831,121.472756 86.1684345,122.875461 84.7743578,123.520079 L86.8962285,128 L83.8907459,128 L81.9912809,123.978185 L80.7890879,123.978185 L80.7530221,127.970253 Z M84.2453929,119.96232 C84.2593508,119.566794 84.1003549,119.18451 83.8091082,118.913336 C83.5178615,118.642162 83.1226391,118.508423 82.7246187,118.546356 L80.7530221,118.546356 L80.7530221,121.396133 L82.8087722,121.396133 C83.1928825,121.399396 83.5620469,121.248992 83.8325298,120.979038 C84.1030128,120.709084 84.2518901,120.342458 84.2453929,119.96232 L84.2453929,119.96232 Z" id="Shape" fill="#000000"></path>
                <polygon id="Path" fill="#000000" points="101.114474 118.558648 98 118.558648 98 116 107 116 107 118.558648 103.85 118.558648 103.85 128 101.114474 128"></polygon>
                <path d="M114.747001,127.970253 L112,127.970253 L112,116 L116.628427,116 C119.976522,116 120.998383,118.326227 120.998383,119.950421 C121.04288,121.474568 120.165837,122.878451 118.768323,123.520079 L120.896197,128 L117.890725,128 L115.991267,123.978185 L114.789078,123.978185 L114.747001,127.970253 Z M118.233349,119.950421 C118.247307,119.554895 118.088311,119.172612 117.797066,118.901437 C117.50582,118.630263 117.110599,118.496524 116.71258,118.534457 L114.747001,118.534457 L114.747001,121.384234 L116.784711,121.384234 C117.169271,121.392332 117.540669,121.245518 117.813786,120.977439 C118.086903,120.709359 118.238325,120.342999 118.233349,119.96232 L118.233349,119.950421 Z" id="Shape" fill="#000000"></path>
                <path d="M136,128 L133.097536,128 L132.103696,125.516018 L128.890657,125.516018 L127.902464,128 L125,128 L130.387064,116 L130.612936,116 L136,128 Z M129.73768,123.375062 L131.24538,123.375062 L130.5,121.470675 L129.73768,123.375062 Z" id="Shape" fill="#000000"></path>
                <polygon id="Path" fill="#000000" points="143 128 140 128 140 116 143 116"></polygon>
                <polygon id="Path" fill="#000000" points="148.15006 116 155.238896 122.093476 155.238896 116.146056 158 116.146056 158 127.929893 157.861945 128 150.773109 121.853944 150.773109 127.900682 148 127.900682 148 116.046738"></polygon>
                <polygon id="Path" fill="#000000" points="166.645579 123.353877 166.645579 125.447316 172 125.447316 172 128 164 128 164 116 172 116 172 118.558648 166.645579 118.558648 166.645579 120.801193 170.826743 120.801193 170.826743 123.353877"></polygon>
                <path d="M179.747001,127.970253 L177,127.970253 L177,116 L181.628427,116 C184.976522,116 185.998383,118.326227 185.998383,119.950421 C186.04288,121.474568 185.165837,122.878451 183.768323,123.520079 L185.896197,128 L182.890725,128 L180.991267,123.978185 L179.789078,123.978185 L179.747001,127.970253 Z M183.233349,119.950421 C183.247307,119.554895 183.088311,119.172612 182.797066,118.901437 C182.50582,118.630263 182.110599,118.496524 181.71258,118.534457 L179.747001,118.534457 L179.747001,121.384234 L181.784711,121.384234 C182.171329,121.395622 182.54588,121.250265 182.821641,120.981819 C183.097403,120.713373 183.250459,120.345118 183.245371,119.96232 L183.233349,119.950421 Z" id="Shape" fill="#000000"></path>
            </g>
        </g>
    </g>
</svg>